<mxfile host="app.diagrams.net" agent="Mozilla/5.0 (Windows NT 10.0; Win64; x64; rv:131.0) Gecko/20100101 Firefox/131.0" version="24.7.17">
  <diagram name="Page-1" id="zxCfzOraTNAjzz_b3QGn">
    <mxGraphModel dx="880" dy="470" grid="1" gridSize="10" guides="1" tooltips="1" connect="1" arrows="1" fold="1" page="1" pageScale="1" pageWidth="850" pageHeight="1100" math="0" shadow="0">
      <root>
        <mxCell id="0" />
        <mxCell id="1" parent="0" />
        <mxCell id="QGao07sYF49QG53qNLMk-1" value="" style="sketch=0;outlineConnect=0;fontColor=#232F3E;gradientColor=none;fillColor=#232F3D;strokeColor=none;dashed=0;verticalLabelPosition=bottom;verticalAlign=top;align=center;html=1;fontSize=12;fontStyle=0;aspect=fixed;pointerEvents=1;shape=mxgraph.aws4.client;" vertex="1" parent="1">
          <mxGeometry x="160" y="160" width="78" height="76" as="geometry" />
        </mxCell>
        <mxCell id="QGao07sYF49QG53qNLMk-2" value="" style="image;points=[];aspect=fixed;html=1;align=center;shadow=0;dashed=0;image=img/lib/allied_telesis/computer_and_terminals/Server_Desktop.svg;direction=east;" vertex="1" parent="1">
          <mxGeometry x="420" y="160" width="51.28" height="65" as="geometry" />
        </mxCell>
        <mxCell id="QGao07sYF49QG53qNLMk-3" value="" style="endArrow=classic;html=1;rounded=0;" edge="1" parent="1">
          <mxGeometry width="50" height="50" relative="1" as="geometry">
            <mxPoint x="240" y="190" as="sourcePoint" />
            <mxPoint x="410" y="190" as="targetPoint" />
          </mxGeometry>
        </mxCell>
        <mxCell id="QGao07sYF49QG53qNLMk-4" value="HTTP Request" style="edgeLabel;html=1;align=center;verticalAlign=middle;resizable=0;points=[];" vertex="1" connectable="0" parent="QGao07sYF49QG53qNLMk-3">
          <mxGeometry x="0.0117" y="2" relative="1" as="geometry">
            <mxPoint y="-8" as="offset" />
          </mxGeometry>
        </mxCell>
        <mxCell id="QGao07sYF49QG53qNLMk-5" value="HTTP Response" style="edgeLabel;html=1;align=center;verticalAlign=middle;resizable=0;points=[];" vertex="1" connectable="0" parent="QGao07sYF49QG53qNLMk-3">
          <mxGeometry x="-0.4665" y="-2" relative="1" as="geometry">
            <mxPoint x="45" y="8" as="offset" />
          </mxGeometry>
        </mxCell>
        <mxCell id="QGao07sYF49QG53qNLMk-7" value="" style="endArrow=classic;html=1;rounded=0;exitX=-0.078;exitY=0.738;exitDx=0;exitDy=0;exitPerimeter=0;" edge="1" parent="1" source="QGao07sYF49QG53qNLMk-2">
          <mxGeometry width="50" height="50" relative="1" as="geometry">
            <mxPoint x="380" y="210" as="sourcePoint" />
            <mxPoint x="240" y="208" as="targetPoint" />
          </mxGeometry>
        </mxCell>
        <mxCell id="QGao07sYF49QG53qNLMk-8" value="" style="image;html=1;image=img/lib/clip_art/computers/Database_128x128.png" vertex="1" parent="1">
          <mxGeometry x="630" y="156" width="80" height="80" as="geometry" />
        </mxCell>
        <mxCell id="QGao07sYF49QG53qNLMk-9" value="" style="endArrow=classic;html=1;rounded=0;entryX=-0.037;entryY=0.425;entryDx=0;entryDy=0;entryPerimeter=0;" edge="1" parent="1" target="QGao07sYF49QG53qNLMk-8">
          <mxGeometry width="50" height="50" relative="1" as="geometry">
            <mxPoint x="480" y="190" as="sourcePoint" />
            <mxPoint x="570" y="190" as="targetPoint" />
          </mxGeometry>
        </mxCell>
        <mxCell id="QGao07sYF49QG53qNLMk-10" value="Data request" style="edgeLabel;html=1;align=center;verticalAlign=middle;resizable=0;points=[];" vertex="1" connectable="0" parent="QGao07sYF49QG53qNLMk-9">
          <mxGeometry x="-0.0615" y="-2" relative="1" as="geometry">
            <mxPoint y="-12" as="offset" />
          </mxGeometry>
        </mxCell>
        <mxCell id="QGao07sYF49QG53qNLMk-11" value="" style="endArrow=classic;html=1;rounded=0;" edge="1" parent="1">
          <mxGeometry width="50" height="50" relative="1" as="geometry">
            <mxPoint x="620" y="210" as="sourcePoint" />
            <mxPoint x="480" y="210" as="targetPoint" />
          </mxGeometry>
        </mxCell>
        <mxCell id="QGao07sYF49QG53qNLMk-12" value="Data response" style="edgeLabel;html=1;align=center;verticalAlign=middle;resizable=0;points=[];" vertex="1" connectable="0" parent="QGao07sYF49QG53qNLMk-11">
          <mxGeometry x="-0.1" y="4" relative="1" as="geometry">
            <mxPoint y="-14" as="offset" />
          </mxGeometry>
        </mxCell>
      </root>
    </mxGraphModel>
  </diagram>
</mxfile>
